<svg width="121" height="121" viewBox="0 0 121 121" fill="none" xmlns="http://www.w3.org/2000/svg">
<g clip-path="url(#clip0_42_79)">
<path d="M90.5 15.3775H30.5C19.45 15.3775 10.5 24.2775 10.5 35.2275V85.5275C10.5 96.4775 19.45 105.378 30.5 105.378H90.5C101.55 105.378 110.5 96.4775 110.5 85.5275V35.2275C110.5 24.2775 101.55 15.3775 90.5 15.3775ZM43 36.2275C49.35 36.2275 54.55 41.4275 54.55 47.7775C54.55 54.1275 49.35 59.3275 43 59.3275C36.65 59.3275 31.45 54.1275 31.45 47.7775C31.45 41.4275 36.65 36.2275 43 36.2275ZM62.35 83.6775C61.9 84.1775 61.2 84.4775 60.5 84.4775H25.5C24.8 84.4775 24.1 84.1775 23.65 83.6775C23.4211 83.4197 23.2458 83.119 23.1342 82.7928C23.0226 82.4666 22.977 82.1215 23 81.7775C23.4179 77.6995 25.2352 73.8922 28.143 71.0026C31.0508 68.1131 34.8695 66.3198 38.95 65.9275C41.6275 65.6775 44.3225 65.6775 47 65.9275C55.4 66.7275 62.15 73.3775 62.95 81.7775C63.05 82.4775 62.8 83.1775 62.35 83.6775ZM95.5 84.1275H85.5C83.45 84.1275 81.75 82.4275 81.75 80.3775C81.75 78.3275 83.45 76.6275 85.5 76.6275H95.5C97.55 76.6275 99.25 78.3275 99.25 80.3775C99.25 82.4275 97.55 84.1275 95.5 84.1275ZM95.5 64.1275H75.5C73.45 64.1275 71.75 62.4275 71.75 60.3775C71.75 58.3275 73.45 56.6275 75.5 56.6275H95.5C97.55 56.6275 99.25 58.3275 99.25 60.3775C99.25 62.4275 97.55 64.1275 95.5 64.1275ZM95.5 44.1275H70.5C68.45 44.1275 66.75 42.4275 66.75 40.3775C66.75 38.3275 68.45 36.6275 70.5 36.6275H95.5C97.55 36.6275 99.25 38.3275 99.25 40.3775C99.25 42.4275 97.55 44.1275 95.5 44.1275Z" fill="#00806C"/>
<path d="M96.5 73.8775C84.0993 73.8775 74 83.9768 74 96.3775C74 108.778 84.0993 118.878 96.5 118.878C108.901 118.878 119 108.778 119 96.3775C119 83.9768 108.901 73.8775 96.5 73.8775Z" fill="#D6ACB2" stroke="#F5F5F5" stroke-width="5"/>
</g>
<defs>
<clipPath id="clip0_42_79">
<rect width="120" height="120" fill="white" transform="translate(0.5 0.377502)"/>
</clipPath>
</defs>
</svg>
