<svg width="121" height="121" viewBox="0 0 121 121" fill="none" xmlns="http://www.w3.org/2000/svg">
<g clip-path="url(#clip0_42_90)">
<path d="M84.655 78.5775C85.4105 78.0799 86.2869 77.7966 87.1907 77.7579C88.0946 77.7191 88.992 77.9263 89.7874 78.3573C90.5827 78.7883 91.2463 79.4271 91.7072 80.2055C92.1682 80.9839 92.4094 81.8728 92.405 82.7775V89.2275C92.405 95.5775 87.455 102.377 81.505 104.377L65.555 109.677C62.755 110.627 58.205 110.627 55.455 109.677L39.505 104.377C33.505 102.377 28.605 95.5775 28.605 89.2275V82.7275C28.605 78.7775 33.005 76.3775 36.305 78.5275L46.605 85.2275C50.555 87.8775 55.555 89.1775 60.555 89.1775C65.555 89.1775 70.555 87.8775 74.505 85.2275L84.655 78.5775Z" fill="#00806C"/>
<path d="M100.4 32.6725L70.4501 13.0225C65.0501 9.47252 56.1501 9.47252 50.7501 13.0225L20.6501 32.6725C11.0001 38.9225 11.0001 53.0725 20.6501 59.3725L28.6501 64.5725L50.7501 78.9725C56.1501 82.5225 65.0501 82.5225 70.4501 78.9725L92.4001 64.5725L99.2501 60.0725V75.3725C99.2501 77.4225 100.95 79.1225 103 79.1225C105.05 79.1225 106.75 77.4225 106.75 75.3725V50.7725C108.75 44.3225 106.7 36.8225 100.4 32.6725Z" fill="#00806C"/>
<path d="M106.744 101.607L106.747 101.608L114.603 104.046L115.2 102.138L114.607 104.048L114.606 104.047C116.531 104.647 118.5 103.207 118.5 101.178V89.4175C118.5 85.5578 117.338 82.241 114.981 79.8874C112.624 77.5341 109.308 76.3775 105.46 76.3775H89.54C85.6916 76.3775 82.3756 77.5341 80.0192 79.8874C77.6624 82.241 76.5 85.5578 76.5 89.4175V105.338C76.5 109.197 77.6624 112.514 80.0192 114.868C82.3756 117.221 85.6916 118.378 89.54 118.378H101.24C103.27 118.378 104.71 116.409 104.11 114.483C104.109 114.482 104.109 114.482 104.109 114.481L101.69 106.685L101.69 106.685L101.688 106.677C101.466 105.973 101.441 105.222 101.616 104.505C101.792 103.788 102.16 103.133 102.681 102.61C103.202 102.088 103.856 101.718 104.572 101.541C105.289 101.364 106.04 101.387 106.744 101.607Z" fill="#D6ACB2" stroke="#F5F5F5" stroke-width="4"/>
<path d="M115.792 115.051L115.792 115.051L115.799 115.048L119.056 113.949C119.057 113.949 119.057 113.949 119.057 113.949C123.681 112.396 123.64 105.81 118.98 104.345L118.973 104.343L107.063 100.647C107.061 100.646 107.059 100.645 107.057 100.645C103.138 99.41 99.5716 103.105 100.747 106.957L100.747 106.957L100.75 106.967L104.45 118.867L104.451 118.869C105.902 123.519 112.472 123.65 114.036 118.97C114.036 118.969 114.037 118.967 114.037 118.966L115.135 115.713L115.138 115.703L115.141 115.693C115.238 115.396 115.474 115.157 115.792 115.051Z" fill="#D6ACB2" stroke="#F5F5F5" stroke-width="4"/>
</g>
<defs>
<clipPath id="clip0_42_90">
<rect width="120" height="120" fill="white" transform="translate(0.5 0.377502)"/>
</clipPath>
</defs>
</svg>
