<svg width="97" height="101" viewBox="0 0 97 101" fill="none" xmlns="http://www.w3.org/2000/svg">
<g id="Group 11">
<path id="Polygon 2" opacity="0.3" d="M38.1401 48.3523C35.2103 37.418 33.7454 31.9508 36.4625 28.7532C36.7426 28.4236 37.0489 28.1172 37.3786 27.8371C40.5762 25.12 46.0433 26.5849 56.9776 29.5147C67.9119 32.4446 73.3791 33.9095 74.7897 37.8614C74.9351 38.2688 75.0473 38.6873 75.125 39.1128C75.8793 43.2406 71.8771 47.2428 63.8726 55.2473C55.8682 63.2517 51.866 67.254 47.7382 66.4997C47.3127 66.4219 46.8942 66.3098 46.4868 66.1644C42.5349 64.7537 41.0699 59.2866 38.1401 48.3523Z" fill="#8C0014"/>
<path id="Polygon 3" d="M27.9419 70.8125C20.6725 62.135 17.0378 57.7963 18.1522 53.7508C18.2671 53.3338 18.4156 52.9268 18.5963 52.5338C20.349 48.7213 25.9238 47.7429 37.0735 45.7861C48.2231 43.8293 53.7979 42.8509 56.7441 45.8388C57.0478 46.1468 57.3261 46.4789 57.5761 46.8318C60.0014 50.2561 58.0613 55.5732 54.1812 66.2074C50.301 76.8417 48.3609 82.1588 44.3002 83.2164C43.8816 83.3254 43.4549 83.4003 43.0242 83.4403C38.8461 83.8286 35.2114 79.4899 27.9419 70.8125Z" fill="#00806C"/>
</g>
</svg>
