<svg width="121" height="121" viewBox="0 0 121 121" fill="none" xmlns="http://www.w3.org/2000/svg">
<g clip-path="url(#clip0_42_128)">
<path d="M100.5 49.5775H20.5C17.75 49.5775 15.5 51.8275 15.5 54.5775V85.3775C15.5 100.378 23 110.378 40.5 110.378H80.5C98 110.378 105.5 100.378 105.5 85.3775V54.5775C105.5 51.8275 103.25 49.5775 100.5 49.5775ZM46.55 91.4275C46.3 91.6275 46.05 91.8775 45.8 92.0275C45.5 92.2275 45.2 92.3775 44.9 92.4775C44.6 92.6275 44.3 92.7275 44 92.7775C43.65 92.8275 43.35 92.8775 43 92.8775C42.35 92.8775 41.7 92.7275 41.1 92.4775C40.45 92.2275 39.95 91.8775 39.45 91.4275C38.55 90.4775 38 89.1775 38 87.8775C38 86.5775 38.55 85.2775 39.45 84.3275C39.95 83.8775 40.45 83.5275 41.1 83.2775C42 82.8775 43 82.7775 44 82.9775C44.3 83.0275 44.6 83.1275 44.9 83.2775C45.2 83.3775 45.5 83.5275 45.8 83.7275L46.55 84.3275C47.45 85.2775 48 86.5775 48 87.8775C48 89.1775 47.45 90.4775 46.55 91.4275ZM46.55 73.9275C45.6 74.8275 44.3 75.3775 43 75.3775C41.7 75.3775 40.4 74.8275 39.45 73.9275C38.55 72.9775 38 71.6775 38 70.3775C38 69.0775 38.55 67.7775 39.45 66.8275C40.85 65.4275 43.05 64.9775 44.9 65.7775C45.55 66.0275 46.1 66.3775 46.55 66.8275C47.45 67.7775 48 69.0775 48 70.3775C48 71.6775 47.45 72.9775 46.55 73.9275ZM64.05 91.4275C63.1 92.3275 61.8 92.8775 60.5 92.8775C59.2 92.8775 57.9 92.3275 56.95 91.4275C56.05 90.4775 55.5 89.1775 55.5 87.8775C55.5 86.5775 56.05 85.2775 56.95 84.3275C58.8 82.4775 62.2 82.4775 64.05 84.3275C64.95 85.2775 65.5 86.5775 65.5 87.8775C65.5 89.1775 64.95 90.4775 64.05 91.4275ZM64.05 73.9275L63.3 74.5275C63 74.7275 62.7 74.8775 62.4 74.9775C62.1 75.1275 61.8 75.2275 61.5 75.2775C61.15 75.3275 60.85 75.3775 60.5 75.3775C59.2 75.3775 57.9 74.8275 56.95 73.9275C56.05 72.9775 55.5 71.6775 55.5 70.3775C55.5 69.0775 56.05 67.7775 56.95 66.8275C57.4 66.3775 57.95 66.0275 58.6 65.7775C60.45 64.9775 62.65 65.4275 64.05 66.8275C64.95 67.7775 65.5 69.0775 65.5 70.3775C65.5 71.6775 64.95 72.9775 64.05 73.9275ZM81.55 91.4275C80.6 92.3275 79.3 92.8775 78 92.8775C76.7 92.8775 75.4 92.3275 74.45 91.4275C73.55 90.4775 73 89.1775 73 87.8775C73 86.5775 73.55 85.2775 74.45 84.3275C76.3 82.4775 79.7 82.4775 81.55 84.3275C82.45 85.2775 83 86.5775 83 87.8775C83 89.1775 82.45 90.4775 81.55 91.4275ZM81.55 73.9275L80.8 74.5275C80.5 74.7275 80.2 74.8775 79.9 74.9775C79.6 75.1275 79.3 75.2275 79 75.2775C78.65 75.3275 78.3 75.3775 78 75.3775C76.7 75.3775 75.4 74.8275 74.45 73.9275C73.55 72.9775 73 71.6775 73 70.3775C73 69.0775 73.55 67.7775 74.45 66.8275C74.95 66.3775 75.45 66.0275 76.1 65.7775C77 65.3775 78 65.2775 79 65.4775C79.3 65.5275 79.6 65.6275 79.9 65.7775C80.2 65.8775 80.5 66.0275 80.8 66.2275L81.55 66.8275C82.45 67.7775 83 69.0775 83 70.3775C83 71.6775 82.45 72.9775 81.55 73.9275Z" fill="#00806C"/>
<path d="M84.2499 10.3775V18.1775C97.7499 19.4275 104.3 27.4775 105.3 39.4275C105.45 40.8275 104.25 42.0775 102.8 42.0775H18.1999C16.7999 42.0775 15.5999 40.8775 15.6999 39.4275C16.6999 27.4775 23.2499 19.4275 36.7499 18.1775V10.3775C36.7499 8.3275 38.4499 6.6275 40.4999 6.6275C42.5499 6.6275 44.2499 8.3275 44.2499 10.3775V17.8775H76.7499V10.3775C76.7499 8.3275 78.4499 6.6275 80.4999 6.6275C82.5499 6.6275 84.2499 8.3275 84.2499 10.3775Z" fill="#00806C"/>
<path d="M105.927 81.0205C107.194 80.4974 108.06 79.2374 108.06 77.8175C108.06 75.9129 106.525 74.3775 104.62 74.3775H93.06C91.1197 74.3775 89.62 75.969 89.62 77.8375C89.62 79.2771 90.4973 80.5058 91.7481 81.02C84.582 83.8541 79.5 90.8512 79.5 99.0135C79.5 109.675 88.1724 118.374 98.84 118.374C109.505 118.374 118.18 109.698 118.18 99.0335C118.18 90.871 113.097 83.8592 105.927 81.0205Z" fill="#D6ACB2" stroke="#F5F5F5" stroke-width="4"/>
</g>
<defs>
<clipPath id="clip0_42_128">
<rect width="120" height="120" fill="white" transform="translate(0.5 0.377502)"/>
</clipPath>
</defs>
</svg>
