<svg width="121" height="121" viewBox="0 0 121 121" fill="none" xmlns="http://www.w3.org/2000/svg">
<g clip-path="url(#clip0_42_83)">
<path d="M105.35 80.7775C104.15 94.1275 94.5 102.878 80.5 102.878H35.5C21.7 102.878 10.5 91.6775 10.5 77.8775V42.8775C10.5 29.2775 18.7 19.7775 31.45 18.1775C32.75 17.9775 34.1 17.8775 35.5 17.8775H80.5C81.8 17.8775 83.05 17.9275 84.25 18.1275C96.2 19.5275 104.3 27.8775 105.35 39.9775C105.378 40.3199 105.334 40.6644 105.22 40.9886C105.107 41.3128 104.926 41.6095 104.69 41.8594C104.455 42.1093 104.169 42.3069 103.852 42.4392C103.535 42.5715 103.193 42.6357 102.85 42.6275H95.1C90.3 42.6275 85.85 44.4775 82.65 47.7775C78.85 51.4775 76.95 56.6775 77.4 61.8775C78.2 70.9775 86.2 78.1275 95.7 78.1275H102.85C104.3 78.1275 105.5 79.3275 105.35 80.7775Z" fill="#00806C"/>
<mask id="path-2-outside-1_42_83" maskUnits="userSpaceOnUse" x="73.6001" y="71.1826" width="46" height="53" fill="black">
<rect fill="white" x="73.6001" y="71.1826" width="46" height="53"/>
<path d="M109.58 81.6176L98.5801 77.4976C97.4401 77.0776 95.5801 77.0776 94.4401 77.4976L83.4401 81.6176C81.3201 82.4176 79.6001 84.8976 79.6001 87.1576V103.358C79.6001 104.978 80.6601 107.118 81.9601 108.078L92.9601 116.298C94.9001 117.758 98.0801 117.758 100.02 116.298L111.02 108.078C112.32 107.098 113.38 104.978 113.38 103.358V87.1576C113.4 84.8976 111.68 82.4176 109.58 81.6176ZM103.46 92.8176L94.8601 101.418C94.5601 101.718 94.1801 101.858 93.8001 101.858C93.4201 101.858 93.0401 101.718 92.7401 101.418L89.5401 98.1776C89.2611 97.8953 89.1047 97.5144 89.1047 97.1176C89.1047 96.7207 89.2611 96.3398 89.5401 96.0576C90.1201 95.4776 91.0801 95.4776 91.6601 96.0576L93.8201 98.2176L101.36 90.6776C101.94 90.0976 102.9 90.0976 103.48 90.6776C104.06 91.2576 104.06 92.2376 103.46 92.8176Z"/>
</mask>
<path d="M109.58 81.6176L98.5801 77.4976C97.4401 77.0776 95.5801 77.0776 94.4401 77.4976L83.4401 81.6176C81.3201 82.4176 79.6001 84.8976 79.6001 87.1576V103.358C79.6001 104.978 80.6601 107.118 81.9601 108.078L92.9601 116.298C94.9001 117.758 98.0801 117.758 100.02 116.298L111.02 108.078C112.32 107.098 113.38 104.978 113.38 103.358V87.1576C113.4 84.8976 111.68 82.4176 109.58 81.6176ZM103.46 92.8176L94.8601 101.418C94.5601 101.718 94.1801 101.858 93.8001 101.858C93.4201 101.858 93.0401 101.718 92.7401 101.418L89.5401 98.1776C89.2611 97.8953 89.1047 97.5144 89.1047 97.1176C89.1047 96.7207 89.2611 96.3398 89.5401 96.0576C90.1201 95.4776 91.0801 95.4776 91.6601 96.0576L93.8201 98.2176L101.36 90.6776C101.94 90.0976 102.9 90.0976 103.48 90.6776C104.06 91.2576 104.06 92.2376 103.46 92.8176Z" fill="#D6ACB2"/>
<path d="M109.58 81.6176L111.716 76.0106L111.7 76.0046L111.685 75.9987L109.58 81.6176ZM98.5801 77.4976L100.685 71.8787L100.669 71.8731L100.654 71.8675L98.5801 77.4976ZM94.4401 77.4976L92.3659 71.8675L92.3507 71.8731L92.3356 71.8787L94.4401 77.4976ZM83.4401 81.6176L81.3356 75.9987L81.3287 76.0013L81.3218 76.0039L83.4401 81.6176ZM81.9601 108.078L85.5517 103.271L85.5381 103.261L85.5244 103.251L81.9601 108.078ZM92.9601 116.298L96.568 111.503L96.5599 111.497L96.5517 111.491L92.9601 116.298ZM100.02 116.298L96.4285 111.491L96.4203 111.497L96.4122 111.503L100.02 116.298ZM111.02 108.078L114.612 112.884L114.622 112.876L114.632 112.869L111.02 108.078ZM113.38 87.1576L107.38 87.1045L107.38 87.131V87.1576H113.38ZM103.46 92.8176L99.29 88.5036L99.2534 88.539L99.2175 88.5749L103.46 92.8176ZM94.8601 101.418L99.1027 105.66V105.66L94.8601 101.418ZM92.7401 101.418L88.4712 105.634L88.4843 105.647L88.4975 105.66L92.7401 101.418ZM89.5401 98.1776L93.809 93.9613L93.8077 93.96L89.5401 98.1776ZM89.1047 97.1176H83.1047H89.1047ZM89.5401 96.0576L85.2975 91.8149L85.2849 91.8274L85.2725 91.84L89.5401 96.0576ZM93.8201 98.2176L89.5775 102.46L93.8201 106.703L98.0627 102.46L93.8201 98.2176ZM111.685 75.9987L100.685 71.8787L96.4756 83.1164L107.476 87.2364L111.685 75.9987ZM100.654 71.8675C99.2193 71.3388 97.7165 71.1826 96.5101 71.1826C95.3037 71.1826 93.8009 71.3388 92.3659 71.8675L96.5143 83.1276C96.462 83.1469 96.419 83.1608 96.3868 83.1704C96.3545 83.1801 96.33 83.1865 96.3141 83.1904C96.298 83.1943 96.2884 83.1962 96.2854 83.1968C96.2824 83.1974 96.2844 83.1969 96.2915 83.1958C96.2985 83.1948 96.3094 83.1933 96.324 83.1917C96.3386 83.1902 96.3559 83.1886 96.3757 83.1871C96.3955 83.1857 96.417 83.1846 96.4399 83.1838C96.4627 83.183 96.4862 83.1826 96.5101 83.1826C96.534 83.1826 96.5575 83.183 96.5803 83.1838C96.6032 83.1846 96.6247 83.1857 96.6445 83.1871C96.6643 83.1886 96.6816 83.1902 96.6962 83.1917C96.7108 83.1933 96.7217 83.1948 96.7287 83.1958C96.7358 83.1969 96.7378 83.1974 96.7348 83.1968C96.7318 83.1962 96.7222 83.1943 96.7061 83.1904C96.6902 83.1865 96.6657 83.1801 96.6334 83.1704C96.6012 83.1608 96.5582 83.1469 96.5059 83.1276L100.654 71.8675ZM92.3356 71.8787L81.3356 75.9987L85.5446 87.2364L96.5446 83.1164L92.3356 71.8787ZM81.3218 76.0039C78.908 76.9148 77.0386 78.6266 75.7942 80.4216C74.5503 82.2158 73.6001 84.5707 73.6001 87.1576H85.6001C85.6001 87.2546 85.591 87.3232 85.5841 87.3614C85.5773 87.3996 85.5714 87.4152 85.5733 87.4097C85.5751 87.4043 85.5822 87.3854 85.5972 87.356C85.6122 87.3268 85.6319 87.2933 85.656 87.2585C85.6801 87.2237 85.7048 87.1932 85.7275 87.1683C85.7503 87.1433 85.7664 87.1292 85.772 87.1245C85.7777 87.1198 85.7669 87.1295 85.7357 87.1481C85.7045 87.1667 85.6462 87.1981 85.5584 87.2312L81.3218 76.0039ZM73.6001 87.1576V103.358H85.6001V87.1576H73.6001ZM73.6001 103.358C73.6001 105.344 74.2078 107.208 74.9229 108.642C75.6358 110.072 76.7675 111.702 78.3958 112.904L85.5244 103.251C85.6308 103.33 85.6977 103.392 85.7302 103.425C85.7636 103.458 85.7752 103.474 85.7698 103.467C85.7647 103.461 85.7498 103.441 85.7287 103.407C85.7077 103.374 85.6848 103.333 85.6623 103.288C85.6398 103.243 85.6207 103.199 85.6056 103.16C85.5905 103.12 85.5822 103.093 85.5787 103.08C85.5751 103.067 85.5793 103.079 85.585 103.117C85.5905 103.155 85.6001 103.236 85.6001 103.358H73.6001ZM78.3685 112.884L89.3685 121.104L96.5517 111.491L85.5517 103.271L78.3685 112.884ZM89.3522 121.092C91.5422 122.74 94.1534 123.393 96.4901 123.393C98.8268 123.393 101.438 122.74 103.628 121.092L96.4122 111.503C96.484 111.449 96.5413 111.417 96.5767 111.4C96.6119 111.382 96.6302 111.377 96.6287 111.377C96.6272 111.378 96.6126 111.382 96.5856 111.386C96.5587 111.39 96.526 111.393 96.4901 111.393C96.4542 111.393 96.4215 111.39 96.3946 111.386C96.3676 111.382 96.353 111.378 96.3515 111.377C96.35 111.377 96.3682 111.382 96.4035 111.4C96.4388 111.417 96.4962 111.449 96.568 111.503L89.3522 121.092ZM103.612 121.104L114.612 112.884L107.428 103.271L96.4285 111.491L103.612 121.104ZM114.632 112.869C116.217 111.674 117.338 110.074 118.054 108.641C118.77 107.21 119.38 105.349 119.38 103.358H107.38C107.38 103.296 107.383 103.245 107.386 103.205C107.389 103.166 107.392 103.135 107.396 103.115C107.401 103.074 107.406 103.06 107.403 103.072C107.4 103.083 107.392 103.109 107.377 103.148C107.363 103.186 107.344 103.229 107.321 103.274C107.298 103.32 107.275 103.361 107.253 103.396C107.231 103.432 107.214 103.455 107.206 103.465C107.197 103.476 107.204 103.465 107.231 103.438C107.245 103.424 107.266 103.404 107.294 103.379C107.323 103.354 107.361 103.322 107.408 103.286L114.632 112.869ZM119.38 103.358V87.1576H107.38V103.358H119.38ZM119.38 87.2107C119.403 84.6036 118.454 82.2348 117.218 80.4383C115.981 78.6417 114.119 76.9262 111.716 76.0106L107.444 87.2245C107.353 87.1898 107.293 87.157 107.26 87.1375C107.227 87.1179 107.216 87.1074 107.221 87.1117C107.226 87.1158 107.241 87.1294 107.263 87.1539C107.285 87.1782 107.309 87.2081 107.333 87.2418C107.356 87.2756 107.375 87.3077 107.389 87.3351C107.402 87.3627 107.408 87.3791 107.409 87.3814C107.41 87.3839 107.403 87.3647 107.396 87.3222C107.388 87.2797 107.379 87.2064 107.38 87.1045L119.38 87.2107ZM99.2175 88.5749L90.6175 97.1749L99.1027 105.66L107.703 97.0602L99.2175 88.5749ZM90.6175 97.1749C91.502 96.2904 92.6747 95.8576 93.8001 95.8576V107.858C95.6855 107.858 97.6182 107.145 99.1027 105.66L90.6175 97.1749ZM93.8001 95.8576C94.9255 95.8576 96.0982 96.2904 96.9827 97.1749L88.4975 105.66C89.982 107.145 91.9147 107.858 93.8001 107.858V95.8576ZM97.009 97.2014L93.809 93.9613L85.2712 102.394L88.4712 105.634L97.009 97.2014ZM93.8077 93.96C94.6387 94.8009 95.1047 95.9354 95.1047 97.1176H83.1047C83.1047 99.0934 83.8836 100.99 85.2725 102.395L93.8077 93.96ZM95.1047 97.1176C95.1047 98.2997 94.6387 99.4342 93.8077 100.275L85.2725 91.84C83.8836 93.2454 83.1047 95.1417 83.1047 97.1176H95.1047ZM93.7827 100.3C92.0196 102.063 89.1806 102.063 87.4175 100.3L95.9027 91.8149C92.9796 88.8918 88.2206 88.8918 85.2975 91.8149L93.7827 100.3ZM87.4175 100.3L89.5775 102.46L98.0627 93.9749L95.9027 91.8149L87.4175 100.3ZM98.0627 102.46L105.603 94.9202L97.1175 86.4349L89.5775 93.9749L98.0627 102.46ZM105.603 94.9202C103.84 96.6833 101.001 96.6833 99.2375 94.9202L107.723 86.4349C104.8 83.5118 100.041 83.5118 97.1175 86.4349L105.603 94.9202ZM99.2375 94.9202C97.4628 93.1456 97.4619 90.2707 99.29 88.5036L107.63 97.1315C110.658 94.2044 110.657 89.3695 107.723 86.4349L99.2375 94.9202Z" fill="#F5F5F5" mask="url(#path-2-outside-1_42_83)"/>
<path d="M110.5 55.2275V65.5275C110.5 68.2775 108.3 70.5275 105.5 70.6275H95.7001C90.3001 70.6275 85.3501 66.6775 84.9001 61.2775C84.6001 58.1275 85.8001 55.1775 87.9001 53.1275C89.7501 51.2275 92.3001 50.1275 95.1001 50.1275H105.5C108.3 50.2275 110.5 52.4775 110.5 55.2275Z" fill="#00806C"/>
</g>
<defs>
<clipPath id="clip0_42_83">
<rect width="120" height="120" fill="white" transform="translate(0.5 0.377502)"/>
</clipPath>
</defs>
</svg>
